# xmcd CD database file
#
# Track frame offsets:
#	150
#	37613
#	93934
#	156736
#	192180
#	237996
#
# Disc length: 3487 seconds
#
# Revision: 0
# Processed by: cddbd v1.5.2PL0 Copyright (c) Steve Scherf et al.
# Submitted via: CDex 1.70beta1
#
DISCID=420d9d06
DTITLE=Billy Bang - Da bang!
DYEAR=2013
DGENRE=Jazz
TTITLE0=Da bang
TTITLE1=Guinea
TTITLE2=Daydreams
TTITLE3=Law years
TTITLE4=All blues
TTITLE5=St. Thomas
EXTD=YEAR: 2013
EXTT0=
EXTT1=
EXTT2=
EXTT3=
EXTT4=
EXTT5=
PLAYORDER=
